<?xml version="1.0" encoding="utf-8"?>
<!-- Generator: Adobe Illustrator 26.0.1, SVG Export Plug-In . SVG Version: 6.00 Build 0)  -->
<svg version="1.1" id="Layer_1" xmlns="http://www.w3.org/2000/svg" xmlns:xlink="http://www.w3.org/1999/xlink" x="0px" y="0px"
	 viewBox="0 0 397.21 38.11" style="enable-background:new 0 0 397.21 38.11;" xml:space="preserve">
<g>
	<path d="M44.28,38.1l-10.2-13.03C28.85,18.4,25.47,13.65,23.1,10c0.24,3.48,0.24,4.34,0.3,16.62V38.1h-9.61V0h11.87l9.61,12.17
		c3.74,4.74,9.25,12.17,11.69,15.82c-0.18-2.17-0.3-7.2-0.3-16.34V0h9.61v38.1H44.28z"/>
	<path d="M95.37,3.37C91.57,0.91,87.36,0,80.12,0H60.13v38.1h19.76c6.64,0,11.39-1.14,15.31-3.77c5.22-3.43,8.25-9.2,8.25-15.6
		C103.44,12.4,100.41,6.68,95.37,3.37z M80,30.39h-9.97V7.71H80c8.07,0,12.58,4.11,12.58,11.31C92.58,26.28,88.07,30.39,80,30.39z"
		/>
	<polygon points="105.28,38.1 105.28,0 141.47,0 141.47,7.71 115.19,7.71 115.19,14.17 138.44,14.17 138.44,21.88 115.19,21.88 
		115.19,30.39 141.47,30.39 141.47,38.1 	"/>
	<polygon points="175.53,38.1 165.91,25.71 155.65,38.1 143.31,38.1 159.8,18.62 143.31,0 156.54,0 165.91,12 175.53,0 187.87,0 
		171.97,18.62 188.46,38.1 	"/>
	<path d="M252.89,38.11l-10.2-13.03c-5.22-6.68-8.6-11.43-10.98-15.08c0.24,3.48,0.24,4.34,0.3,16.62v11.48h-9.61V0h11.87
		l9.61,12.17c3.74,4.74,9.25,12.17,11.69,15.82c-0.18-2.17-0.3-7.2-0.3-16.34V0h9.61v38.1H252.89z"/>
	<path d="M303.98,3.37C300.18,0.91,295.97,0,288.73,0h-19.99v38.1h19.76c6.64,0,11.39-1.14,15.31-3.77c5.22-3.43,8.25-9.2,8.25-15.6
		C312.05,12.4,309.02,6.68,303.98,3.37z M288.61,30.39h-9.97V7.71h9.97c8.07,0,12.58,4.11,12.58,11.31
		C301.19,26.28,296.68,30.39,288.61,30.39z"/>
	<polygon points="314.47,38.11 314.47,0 350.66,0 350.66,7.71 324.38,7.71 324.38,14.17 347.64,14.17 347.64,21.88 324.38,21.88 
		324.38,30.39 350.66,30.39 350.66,38.11 	"/>
	<polygon points="384.27,38.11 374.66,25.71 364.4,38.11 352.06,38.11 368.55,18.62 352.06,0 365.29,0 374.66,12 384.27,0 396.61,0 
		380.72,18.62 397.21,38.11 	"/>
	<path d="M10.33,33.02V17.05c0-0.01,0-0.01,0-0.02s0-0.01,0-0.02c0-1.38-0.57-2.63-1.5-3.54c-1.79-1.74-1.79-3.19,0-4.93
		c0.93-0.91,1.5-2.16,1.5-3.54c0-2.76-2.29-5-5.13-5C2.37,0,0.08,2.24,0.08,5c0,1.38,0.57,2.63,1.5,3.54
		c1.73,1.69,1.77,3.1,0.14,4.77C0.67,14.24,0,15.56,0,17.05v15.97c0,2.78,2.31,5.04,5.16,5.04h0C8.02,38.06,10.33,35.8,10.33,33.02z
		"/>
	<path d="M213.4,12.9h-15.97c-0.01,0-0.01,0-0.02,0s-0.01,0-0.02,0c-1.38,0-2.63,0.57-3.54,1.5c-1.74,1.79-3.19,1.79-4.93,0
		c-0.91-0.93-2.16-1.5-3.54-1.5c-2.76,0-5,2.29-5,5.13c0,2.83,2.24,5.13,5,5.13c1.38,0,2.63-0.57,3.54-1.5
		c1.69-1.73,3.1-1.77,4.77-0.14c0.92,1.05,2.25,1.72,3.73,1.72h15.97c2.78,0,5.04-2.31,5.04-5.16v0
		C218.44,15.21,216.19,12.9,213.4,12.9z"/>
</g>
</svg>
