<?xml version="1.0" encoding="UTF-8"?>
<svg id="Layer_2" data-name="Layer 2" xmlns="http://www.w3.org/2000/svg" viewBox="0 0 316.22 64.46">
  <defs>
    <style>
      .cls-1 {
        fill: #231f20;
      }
    </style>
  </defs>
  <g id="Layer_1-2" data-name="Layer 1">
    <g>
      <path class="cls-1" d="M41.73,50.25c1.32,0,2.33,1.23,2.04,2.51-2,8.93-10.96,11.7-21.67,11.7C9.97,64.43-.05,60.92,0,48.66v-2.36c-.05-12.23,9.97-15.75,22.1-15.8,10.71.02,19.67,2.79,21.67,11.69.29,1.28-.72,2.51-2.04,2.51h-9.27c-.69,0-1.35-.34-1.71-.92-1.49-2.41-4.77-3-8.65-3-5.15.07-9.53.99-9.46,6.31v.79c-.07,5.27,4.31,6.24,9.46,6.31,3.88,0,7.18-.62,8.66-3.02.36-.59,1.02-.93,1.71-.93h9.26Z"/>
      <path class="cls-1" d="M90.94,46.3v2.36c.05,12.23-9.92,15.77-22.08,15.8-12.18-.02-22.15-3.56-22.1-15.8v-2.36c-.05-12.26,9.92-15.77,22.1-15.8,12.18,0,22.08,3.56,22.08,15.8ZM78.32,47.07c.07-5.27-4.31-6.24-9.46-6.31-5.18.07-9.56,1.03-9.49,6.31v.79c-.07,5.3,4.31,6.26,9.49,6.33,5.15-.07,9.54-1.03,9.46-6.33v-.79Z"/>
      <path class="cls-1" d="M96.25,31.3h12.71c.64,0,1.24.29,1.63.8l10.36,13.29c.83,1.06,2.44,1.06,3.27,0l10.39-13.29c.39-.5.99-.8,1.63-.8h12.69c1.14,0,2.07.93,2.07,2.07v28.22c0,1.14-.93,2.07-2.07,2.07h-8.48c-1.14,0-2.07-.93-2.07-2.07v-8.86c0-2-2.56-2.84-3.74-1.22l-8.28,11.31c-.39.53-1.01.85-1.67.85h-4.21c-.66,0-1.28-.31-1.67-.85l-8.28-11.31c-1.18-1.62-3.74-.78-3.74,1.22v8.86c0,1.14-.93,2.07-2.07,2.07h-8.48c-1.14,0-2.07-.93-2.07-2.07v-28.22c0-1.14.93-2.07,2.07-2.07Z"/>
      <path class="cls-1" d="M140.48,31.3h12.71c.64,0,1.24.29,1.63.8l10.36,13.29c.83,1.06,2.44,1.06,3.27,0l10.39-13.29c.39-.5.99-.8,1.63-.8h12.69c1.14,0,2.07.93,2.07,2.07v28.22c0,1.14-.93,2.07-2.07,2.07h-8.48c-1.14,0-2.07-.93-2.07-2.07v-8.86c0-2-2.56-2.84-3.74-1.22l-8.28,11.31c-.39.53-1.01.85-1.67.85h-4.21c-.66,0-1.28-.31-1.67-.85l-8.28-11.31c-1.18-1.62-3.74-.78-3.74,1.22v8.86c0,1.14-.93,2.07-2.07,2.07h-8.48c-1.14,0-2.07-.93-2.07-2.07v-28.22c0-1.14.93-2.07,2.07-2.07Z"/>
      <path class="cls-1" d="M231.65,31.3h8.5c1.14,0,2.07.93,2.07,2.07v15.31c.05,12.23-9.97,15.75-22.11,15.77-12.14-.02-22.15-3.54-22.1-15.77v-15.31c0-1.14.93-2.07,2.07-2.07h8.47c1.14,0,2.07.93,2.07,2.07v14.52c-.05,5.32,4.31,6.24,9.49,6.31,5.15-.07,9.54-.99,9.46-6.31v-14.52c0-1.14.93-2.07,2.07-2.07Z"/>
      <path class="cls-1" d="M278.88,31.3h8.5c1.14,0,2.07.93,2.07,2.07v28.22c0,1.14-.93,2.07-2.07,2.07h-11.2c-.6,0-1.16-.26-1.56-.7l-13.14-14.94c-1.26-1.43-3.63-.54-3.63,1.37v12.21c0,1.14-.93,2.07-2.07,2.07h-8.48c-1.14,0-2.07-.93-2.07-2.07v-28.22c0-1.14.93-2.07,2.07-2.07h14.32c.62,0,1.2.27,1.59.75l9.92,11.97c1.24,1.49,3.67.62,3.67-1.32v-9.33c0-1.14.93-2.07,2.07-2.07Z"/>
      <path class="cls-1" d="M280.42,31.35h33.73c1.14,0,2.07.93,2.07,2.07v4.14c0,1.14-.93,2.07-2.07,2.07h-21.12c-1.14,0-2.07.93-2.07,2.07h0c0,1.14.93,2.07,2.07,2.07h21.12c1.14,0,2.07.93,2.07,2.07v3.35c0,1.14-.93,2.07-2.07,2.07h-21.12c-1.14,0-2.07.93-2.07,2.07h0c0,1.14.93,2.07,2.07,2.07h21.12c1.14,0,2.07.93,2.07,2.07v4.17c0,1.14-.93,2.07-2.07,2.07h-33.73c-1.14,0-2.07-.93-2.07-2.07v-28.22c0-1.14.93-2.07,2.07-2.07Z"/>
      <path class="cls-1" d="M312.42,21.38L79.51.03c-.23-.02-.46-.03-.68-.03-.67,0-1.34.09-1.95.27L2.54,21.62c-1.88.54-2.89,1.79-2.42,3,.47,1.21,2.28,2.07,4.37,2.07h307.25c2.35,0,4.3-1.07,4.47-2.46.18-1.39-1.47-2.63-3.79-2.84Z"/>
    </g>
  </g>
</svg>