<?xml version="1.0" encoding="UTF-8"?>
<svg id="Layer_2" xmlns="http://www.w3.org/2000/svg" viewBox="0 0 161.29 140.41">
  <g id="Layer_1-2" data-name="Layer_1">
    <g>
      <path d="M71.85,26.95c-.4-1.25-1.64-2.06-3.16-2.06-.91,0-1.82.31-2.55.88-10.46,8.03-20.92,16.06-31.38,24.1-.67.51-1.38.75-2.26.75-5.02,0-10.03,0-15.05,0h-8.77s-3.21,0-3.21,0c-.69,0-1.37,0-2.06.01-1.93.03-3.39,1.21-3.4,2.74-.02,11.09-.01,22.19,0,33.28,0,1.18.89,2.21,2.22,2.57.54.15,1.2.17,1.72.17,4.28,0,8.55,0,12.83,0,5.1,0,10.19,0,15.29.01.76,0,1.52.25,2.06.65,6.11,4.66,12.2,9.34,18.29,14.02l5.52,4.24c2.73,2.09,5.46,4.19,8.18,6.29.79.61,1.59.91,2.42.91.17,0,.35-.01.53-.04,1.86-.26,2.92-1.38,2.92-3.07v-47.79c0-12.17,0-24.34,0-36.5,0-.5-.05-.88-.14-1.17Z"/>
      <path d="M161.17,67.58c-.1-1.72-.22-3.67-.41-5.62-1.16-11.96-5.07-23.72-11.62-34.94-5.07-8.69-11.78-16.97-19.94-24.6C127.5.83,125.51.04,123.12,0h-.24c-3.19,0-5.5,1.02-6.85,3.02-.86,1.28-1.53,3.06,1.04,5.47,16.96,15.92,26.63,34.21,28.72,54.34,1.26,12.15-.55,24.3-5.37,36.13-4.86,11.92-12.69,22.96-23.27,32.83-1.17,1.09-1.75,2.08-1.83,3.09-.16,2.24,1.74,4.3,4.73,5.13.91.25,1.85.38,2.78.38,2.42,0,4.64-.84,6.28-2.38,21.2-19.92,31.73-42.34,32.19-68.52-.04-.59-.08-1.24-.12-1.93Z"/>
      <path d="M127.38,46.71c-3.77-9.73-9.81-18.81-17.94-26.99-1.54-1.55-3.58-2.34-6.06-2.34-.45,0-.92.03-1.4.08-2.93.32-4.92,1.5-5.91,3.49-.6,1.19-.82,2.65,1.54,5.19,20.09,21.55,24.46,45.07,13,69.9-2.94,6.38-7.33,12.48-13.42,18.67-2.08,2.12-1.67,3.68-1.07,4.81,1.05,1.98,3.07,3.13,6.02,3.42.42.04.82.06,1.22.06,2.51,0,4.59-.82,6.17-2.43,14.58-14.88,22.09-31.82,22.31-50.34,0-7.93-1.5-15.84-4.47-23.52Z"/>
      <path d="M104.23,58.73c-1.97-7.11-5.71-13.8-11.12-19.89-1.35-1.52-3.78-2.47-6.34-2.47-.55,0-1.1.04-1.64.13-3.08.51-5.3,2.17-5.81,4.33-.29,1.24.16,2.4,1.61,4.13,8.32,9.93,11.38,20.83,9.09,32.38-1.29,6.52-4.55,12.85-9.68,18.83-.93,1.08-1.28,2.26-1.03,3.42.3,1.4,1.5,2.69,3.27,3.51,1.26.59,2.7.9,4.16.9,2.65,0,5.1-1,6.57-2.69,8.2-9.42,12.41-19.89,12.51-31.13.02-3.77-.52-7.63-1.58-11.46Z"/>
    </g>
  </g>
</svg>