<?xml version="1.0" encoding="UTF-8"?>
<svg id="Layer_2" data-name="Layer 2" xmlns="http://www.w3.org/2000/svg" viewBox="0 0 105.43 70.7">
  <defs>
    <style>
      .cls-1 {
        fill: #231f20;
      }
    </style>
  </defs>
  <g id="Layer_1-2" data-name="Layer 1">
    <g>
      <path class="cls-1" d="M54.47,2.56c-.3-.95-1.24-1.56-2.4-1.56-.69,0-1.38.24-1.93.67-7.93,6.09-15.86,12.18-23.79,18.27-.51.39-1.05.57-1.71.57H4.15c-.52,0-1.04,0-1.56,0-1.46.02-2.57.92-2.58,2.08C0,31,0,39.41,0,47.82c0,.89.67,1.68,1.68,1.95.41.11.91.13,1.3.13h9.73c3.87,0,7.73,0,11.59,0,.58,0,1.15.19,1.56.49,4.63,3.53,9.25,7.08,13.87,10.63l4.18,3.21c2.07,1.58,4.14,3.18,6.2,4.77.6.46,1.21.69,1.83.69.13,0,.27,0,.4-.03,1.41-.2,2.21-1.05,2.21-2.33V3.44c0-.38-.04-.67-.11-.89h0Z"/>
      <path class="cls-1" d="M105.16,30.42l-.07.13c-.66-5.77-2.59-11.43-5.75-16.83-2.53-4.34-5.88-8.47-9.94-12.26-1.01-.94-2.23-1.43-3.66-1.45h-.12c-2.39,0-3.59,1.04-4.18,1.92-1.14,1.7-.27,3.09.65,3.96,8.12,7.62,12.75,16.36,13.74,25.97.6,5.78-.26,11.56-2.56,17.2-2.32,5.69-6.07,10.98-11.14,15.71-.75.7-1.15,1.41-1.21,2.17-.11,1.58,1.11,3.01,3.05,3.55.53.15,1.08.22,1.63.22,1.44,0,2.77-.51,3.76-1.44,10.58-9.94,15.84-21.14,16.06-34.33l-.27-4.52Z"/>
      <path class="cls-1" d="M87.91,24.86h.04l-.53-1.36c-1.89-4.89-4.92-9.45-9-13.55-1.11-1.12-2.57-1.59-4.47-1.4-2.23.24-3.23,1.36-3.68,2.25-.6,1.19-.31,2.35.92,3.67,9.53,10.22,11.61,21.36,6.18,33.11-1.39,3.01-3.47,5.9-6.37,8.85-1.1,1.12-1.34,2.31-.69,3.52.47.88,1.5,1.98,3.73,2.2.24.02.46.03.69.03,1.49,0,2.78-.51,3.73-1.49,7.32-7.47,11.09-15.99,11.2-25.33,0-3.54-.59-7.07-1.76-10.51Z"/>
      <path class="cls-1" d="M73.13,29.47l-.46-1.65-.05.05c-1.08-3.03-2.81-5.89-5.15-8.53-.86-.97-2.3-1.54-3.85-1.54-.34,0-.66.03-.97.08-1.91.32-3.31,1.42-3.65,2.88-.27,1.17.35,2.12,1,2.89,3.87,4.62,5.29,9.67,4.23,15.01-.6,3.01-2.12,5.96-4.51,8.76-.66.76-.91,1.66-.72,2.54.21,1,1,1.88,2.15,2.41.75.35,1.6.53,2.46.53,1.58,0,3.06-.62,3.97-1.66,4.17-4.8,6.32-10.14,6.37-15.88.01-1.92-.26-3.9-.81-5.88Z"/>
    </g>
  </g>
</svg>