<?xml version="1.0" encoding="UTF-8"?>
<svg id="Layer_2" data-name="Layer 2" xmlns="http://www.w3.org/2000/svg" viewBox="0 0 352.22 236.19">
  <defs>
    <style>
      .cls-1 {
        fill: #231f20;
      }
    </style>
  </defs>
  <g id="Layer_1" data-name="Layer 1">
    <g>
      <path class="cls-1" d="M181.98,8.56c-1.01-3.17-4.15-5.22-8-5.22-2.3,0-4.61.79-6.46,2.23-26.49,20.34-52.98,40.67-79.48,61.04-1.7,1.29-3.49,1.9-5.72,1.9H13.86c-1.75,0-3.47,0-5.22.02-4.89.08-8.59,3.06-8.61,6.94C-.02,103.56,0,131.67.03,159.76c0,2.99,2.25,5.6,5.62,6.51,1.37.38,3.04.43,4.36.43h32.49c12.92,0,25.81,0,38.72.02,1.92,0,3.85.63,5.22,1.65,15.47,11.8,30.9,23.65,46.32,35.51l13.98,10.74c6.91,5.29,13.83,10.61,20.72,15.93,2,1.54,4.03,2.3,6.13,2.3.43,0,.89-.03,1.34-.1,4.71-.66,7.4-3.49,7.4-7.78V11.5c0-1.27-.13-2.23-.35-2.96v.03Z"/>
      <path class="cls-1" d="M351.31,101.63l-.23.43c-2.2-19.26-8.66-38.17-19.2-56.23-8.46-14.5-19.63-28.28-33.2-40.97-3.36-3.14-7.45-4.78-12.22-4.86h-.39c-7.97,0-11.99,3.48-13.97,6.41-3.81,5.67-.92,10.33,2.19,13.24,27.14,25.47,42.58,54.66,45.92,86.74,2,19.29-.88,38.63-8.55,57.46-7.75,19.02-20.28,36.68-37.23,52.49-2.52,2.35-3.84,4.71-4.05,7.26-.38,5.29,3.71,10.05,10.18,11.85,1.79.49,3.61.74,5.43.74,4.8,0,9.26-1.7,12.55-4.8,35.35-33.22,52.91-70.63,53.67-114.68l-.9-15.09Z"/>
      <path class="cls-1" d="M293.69,83.04h.13l-1.76-4.55c-6.33-16.33-16.44-31.56-30.07-45.27-3.71-3.74-8.6-5.32-14.93-4.66-7.46.81-10.8,4.55-12.28,7.52-2,3.97-1.03,7.87,3.06,12.27,31.82,34.14,38.78,71.35,20.66,110.6-4.63,10.05-11.59,19.72-21.29,29.58-3.69,3.76-4.46,7.72-2.31,11.77,1.56,2.95,5,6.61,12.48,7.35.8.08,1.55.11,2.31.11,4.97,0,9.28-1.72,12.47-4.98,24.46-24.97,37.05-53.43,37.43-84.63,0-11.82-1.98-23.61-5.88-35.11Z"/>
      <path class="cls-1" d="M244.3,98.44l-1.54-5.51-.17.17c-3.61-10.12-9.39-19.68-17.2-28.49-2.87-3.23-7.68-5.16-12.86-5.16-1.12,0-2.21.09-3.23.26-6.38,1.06-11.05,4.74-12.21,9.61-.92,3.92,1.17,7.08,3.32,9.66,12.92,15.42,17.68,32.3,14.14,50.14-1.99,10.07-7.07,19.91-15.08,29.25-2.19,2.54-3.05,5.55-2.42,8.47.71,3.34,3.34,6.28,7.2,8.06,2.5,1.17,5.34,1.79,8.22,1.79,5.28,0,10.24-2.07,13.26-5.54,13.94-16.02,21.1-33.87,21.27-53.07.04-6.42-.87-13.03-2.7-19.64Z"/>
    </g>
  </g>
</svg>